<?xml version="1.0" encoding="UTF-8"?>
<svg version="1.1" xmlns="http://www.w3.org/2000/svg" width="500" height="500" fill="#ffffff">
<path d="M0 0 C141.9 0 283.8 0 430 0 C430 8 430 8 428.05859375 10.90625 C427.19363281 11.7621875 426.32867187 12.618125 425.4375 13.5 C424.51582031 14.44230469 423.59414063 15.38460938 422.64453125 16.35546875 C421.33548828 17.66451172 421.33548828 17.66451172 420 19 C418.86064837 20.2579826 417.73385186 21.52755256 416.625 22.8125 C416.0784375 23.44027344 415.531875 24.06804688 414.96875 24.71484375 C413.38111798 26.55763092 411.79848992 28.40436449 410.21875 30.25390625 C409.1875417 31.46097313 408.15629052 32.66800337 407.125 33.875 C406.60526611 34.48359863 406.08553223 35.09219727 405.55004883 35.71923828 C402.52094405 39.25642957 399.44843697 42.74401054 396.3125 46.1875 C393.3208184 49.47942205 390.47475577 52.84591307 387.6875 56.3125 C383.80239058 61.11972963 379.68290398 65.63721515 375.4597168 70.14355469 C371.40659482 74.49375393 367.63583832 79.00221121 363.9375 83.66015625 C363.298125 84.43230469 362.65875 85.20445313 362 86 C361.42550527 86.69810783 360.85101054 87.39621566 360.25910687 88.11547828 C357.32077858 90.56659892 355.7128813 90.49750053 351.91679001 90.49219131 C350.03426029 90.50413761 350.03426029 90.50413761 348.11369967 90.51632524 C346.71843598 90.50491301 345.32317527 90.49313063 343.92791748 90.48101807 C342.44778373 90.48276187 340.96765118 90.48626326 339.48752522 90.49137473 C335.41464166 90.5003362 331.34217732 90.48429526 327.26934719 90.46426249 C322.87946508 90.44701861 318.48960737 90.45283201 314.09970093 90.45587158 C306.49205658 90.45797089 298.88454927 90.44540106 291.27693939 90.42292023 C280.27758134 90.39043775 269.27828967 90.37999706 258.27888885 90.37496826 C240.4339352 90.36620971 222.5890546 90.33957895 204.74414062 90.30175781 C187.40755581 90.26505221 170.07099082 90.23673335 152.734375 90.21972656 C151.13193472 90.21815022 151.13193472 90.21815022 149.4971219 90.21654204 C144.13790705 90.21132196 138.77869207 90.20626711 133.41947699 90.20129442 C88.9462531 90.15981494 44.47316433 90.0860677 0 90 C0 60.3 0 30.6 0 0 Z " transform="translate(35,0)"/>
<path d="M0 0 C7.87120584 6.74674786 7.87120584 6.74674786 11.46313477 10.38134766 C12.26409073 11.18883453 13.06504669 11.99632141 13.89027405 12.82827759 C14.73214767 13.68158661 15.5740213 14.53489563 16.44140625 15.4140625 C18.25963043 17.24492594 20.07799399 19.07565097 21.89648438 20.90625 C24.73843779 23.77192867 27.5778357 26.6401196 30.41479492 29.51074219 C33.16833024 32.29632682 35.92992744 35.07385218 38.69140625 37.8515625 C39.53530411 38.70891998 40.37920197 39.56627747 41.24867249 40.44961548 C45.3030728 44.52118645 49.15332735 47.93643088 54 51 C55.81835938 52.84179688 55.81835938 52.84179688 57.34375 54.71875 C61.1533614 59.24004704 65.28417856 63.35959576 69.5 67.5 C74.34414087 72.25748361 79.02412217 77.03992118 83.37695312 82.25585938 C85.25003062 84.37180258 85.25003062 84.37180258 89 87 C89.33 58.29 89.66 29.58 90 0 C152.7 0 215.4 0 280 0 C280 4.12744343 278.38249504 5.04694583 275.5625 8 C272.0388425 11.7492518 268.66698884 15.5513151 265.4375 19.5625 C261.84801032 24.00993448 258.09171544 28.25406991 254.2421875 32.4765625 C251.95484096 35.05082358 249.78451729 37.69289489 247.625 40.375 C243.94298465 44.92940923 240.07099643 49.23747565 236.08422852 53.52124023 C233.1131325 56.73263407 230.30053412 60.02609763 227.5625 63.4375 C223.70660886 68.22794285 219.62893968 72.75191058 215.42407227 77.23413086 C214.95155029 77.73823486 214.47902832 78.24233887 213.9921875 78.76171875 C213.53047433 79.24203804 213.06876116 79.72235733 212.59305668 80.21723175 C210.95290074 81.98269216 210.95290074 81.98269216 209.57238674 84.03430939 C207.24436659 87.19382922 205.39467481 89.58801468 201.54474068 90.72528076 C198.58184049 90.98371051 195.71365131 90.99036453 192.74047852 90.90820312 C191.62754929 90.90937134 190.51462006 90.91053955 189.3679657 90.91174316 C185.7036591 90.90618683 182.04264139 90.84404236 178.37890625 90.78125 C175.83302081 90.76632297 173.28711234 90.75493814 170.74119568 90.74694824 C164.73422586 90.71956528 158.72865929 90.65657593 152.72225088 90.57615232 C145.8807889 90.48654792 139.03926912 90.44270136 132.19736588 90.40258884 C118.13092923 90.31910095 104.06552896 90.17850435 90 90 C90.33 90.66 90.66 91.32 91 92 C91.09701373 93.63136742 91.13068145 95.26667803 91.13371277 96.90092468 C91.14011024 98.45490715 91.14011024 98.45490715 91.14663696 100.0402832 C91.14595718 101.75223877 91.14595718 101.75223877 91.14526367 103.4987793 C91.14862228 104.69727005 91.1519809 105.8957608 91.15544128 107.13056946 C91.16333047 110.42422373 91.16661994 113.71781497 91.16725707 117.01147437 C91.16820611 119.76217607 91.17188464 122.51287171 91.17542917 125.26357108 C91.18357904 131.75734152 91.18601305 138.25109809 91.18530273 144.74487305 C91.18470291 151.43628786 91.19523449 158.1276218 91.2110464 164.81901616 C91.22414319 170.56689288 91.22948568 176.31474325 91.22884732 182.06263477 C91.22859281 185.49402728 91.2314176 188.92534807 91.24202538 192.35672569 C91.25182581 196.18930117 91.24894647 200.02166921 91.24291992 203.85424805 C91.24853943 204.9854306 91.25415894 206.11661316 91.25994873 207.28207397 C91.22540722 215.92951947 90.73564814 221.82372052 84.4375 228.25 C80.96379548 231.89813732 77.65061792 235.56874769 74.5 239.5 C70.66164586 244.25739668 66.60377641 248.75783918 62.46484375 253.25390625 C60.07292703 255.91875166 57.80745116 258.64831825 55.5625 261.4375 C52.34056683 265.43224254 48.99342389 269.24552109 45.5 273 C41.19003562 277.6324838 37.14938832 282.42122233 33.1796875 287.3515625 C30.3140732 290.83343794 27.27960788 294.14485918 24.2421875 297.4765625 C21.95484096 300.05082358 19.78451729 302.69289489 17.625 305.375 C14.21173997 309.58288142 10.69715708 313.67112639 7.0625 317.6875 C6.5895752 318.21714355 6.11665039 318.74678711 5.62939453 319.29248047 C4.46198955 320.56844182 3.23549442 321.78984906 2 323 C1.34 323 0.68 323 0 323 C0 216.41 0 109.82 0 0 Z " transform="translate(35,177)"/>
</svg>
